<svg xmlns="http://www.w3.org/2000/svg" viewBox="0 0 206.96 50.04"><defs><style>.cls-1{fill:#692f17;}</style></defs><g id="Layer_2" data-name="Layer 2"><g id="Layer_1-2" data-name="Layer 1"><path class="cls-1" d="M22.89,25.93c0,.53-.42.88-1.17.88H18.3a5.21,5.21,0,0,1-2.51-.39c-.95-.46-1.52-1.45-2.93-4.13-1.27-2.4-1.77-3.14-2.44-3.14-.46,0-.85.35-1.48,1l-.64.64a.63.63,0,0,0-.18.56,6.26,6.26,0,0,0,.32,2,3.11,3.11,0,0,0,1.34,1.55c.46.29.85.53.85,1s-.56.95-1.34.95H1.52c-.78,0-1.41-.32-1.41-.95s.45-.74.91-1a3.26,3.26,0,0,0,1.35-1.55c.21-.49.35-1.27.35-3.78V7.63a7.33,7.33,0,0,0-.25-2.4A2.16,2.16,0,0,0,1.13,4C.74,3.85,0,3.67,0,3.07s.35-.81,1.2-1A44.83,44.83,0,0,0,6.22.6,2.91,2.91,0,0,1,7.14.39c.49,0,1,.25,1,1.23V16.53c0,.14,0,.21.1.21s.11,0,.22-.14l2.51-2.47c1.05-1.06,2.33-2.47,2.33-3.28s-1-.82-1-1.63c0-.6.5-.85,1.24-.85H21c.84,0,1.2.25,1.2.89s-1,.91-1.84,1.27c-2,.74-3.64,2.05-6.6,4.94-.08.07-.11.11-.11.18a.23.23,0,0,0,.21.21c.18,0,.32-.18.78-.18,1.27,0,2.15,1.63,3.5,4.07,1.73,3.11,2.47,4.13,3.46,4.91C22.15,25.12,22.89,25.29,22.89,25.93Z"/><path class="cls-1" d="M40,11.38c0,1.09-.56,2.15-1.73,2.15s-1.7-.95-2.93-.95c-2.9,0-3.18,4.69-3.18,7.06a11.1,11.1,0,0,0,.35,3.71,2.58,2.58,0,0,0,1.31,1.52c.46.25.85.49.85,1s-.57.92-1.35.92H25.68c-.78,0-1.38-.28-1.38-.92s.39-.74.89-1a2.83,2.83,0,0,0,1.3-1.52,11.26,11.26,0,0,0,.32-3.71V15a8,8,0,0,0-.21-2.29,1.8,1.8,0,0,0-1.31-1.2c-.39-.14-1.09-.29-1.09-1,0-.46.35-.74,1.16-.92a26.34,26.34,0,0,0,4.35-1.34A2.63,2.63,0,0,1,30.8,8c.53,0,1,.32,1,1.17v2.68c0,.11,0,.15.07.15s.07,0,.14-.15C32.82,10.14,34.65,8,36.91,8,39,8,40,9.57,40,11.38Z"/><path class="cls-1" d="M51,25.89c0,.6-.6.92-1.38.92H42.07c-.78,0-1.38-.32-1.38-.92s.39-.74.89-1a2.83,2.83,0,0,0,1.3-1.52,10.67,10.67,0,0,0,.36-3.71V15.05A7,7,0,0,0,43,12.72a2,2,0,0,0-1.31-1.17c-.39-.17-1.09-.35-1.09-1s.35-.74,1.16-1c1.63-.39,3.64-1,4.91-1.41A2.7,2.7,0,0,1,47.58,8c.46,0,.92.25.92,1.2V19.64a11.25,11.25,0,0,0,.35,3.71,2.85,2.85,0,0,0,1.31,1.52C50.62,25.15,51,25.33,51,25.89ZM45.88,6.75c-1.09,0-3.39-2.33-3.39-3.39S44.79,0,45.88,0s3.36,2.3,3.36,3.36S46.94,6.75,45.88,6.75Z"/><path class="cls-1" d="M54.15,20.13c.78,0,1.2.68,2.16,1.88a5.34,5.34,0,0,0,4.16,2.36c1.1,0,2.65-.6,2.65-2,0-3.32-9.71-1.49-9.71-8.13,0-4.1,3.81-6.29,7.84-6.29a10.88,10.88,0,0,1,4.38.85,3.28,3.28,0,0,1,1.59,3.07c0,1.52-.21,2.23-1.41,2.23-.46,0-.81-.18-1.31-.92a4.77,4.77,0,0,0-4-2.58c-1.48,0-2.43.82-2.43,1.91,0,3.07,10,1.66,10,8.41a5.56,5.56,0,0,1-2.54,4.59A9.94,9.94,0,0,1,59.8,27.2,10.17,10.17,0,0,1,54,25.65a5.23,5.23,0,0,1-1.2-3.75C52.81,21,53.09,20.13,54.15,20.13Z"/><path class="cls-1" d="M84,23.35a2.26,2.26,0,0,1-.46,1.2,6.49,6.49,0,0,1-5.34,2.65,5.51,5.51,0,0,1-5.12-2.75A9.44,9.44,0,0,1,72.31,20c0-2.33.28-4.69.35-7.91,0-.28-.1-.39-.39-.39H70.12a.51.51,0,0,1-.53-.56V9.61c0-.32.17-.53.6-.6a4.64,4.64,0,0,0,3.35-1.77,6.14,6.14,0,0,0,.85-2.54c.07-.39.25-.57.6-.57h2.3a.5.5,0,0,1,.53.53V8c0,1,.07,1.06.92,1.06a12.58,12.58,0,0,0,1.62-.1,18.72,18.72,0,0,1,2-.18c.42,0,1.23,0,1.23.71a7.31,7.31,0,0,1-.21,1.06c-.21.92-.5,1.3-1.63,1.3-.53,0-1.16-.07-1.8-.1s-1.3,0-1.83,0a.35.35,0,0,0-.39.39c0,.85,0,1.87,0,2.93a28.83,28.83,0,0,0,.53,6.75,2.5,2.5,0,0,0,2.37,1.94c1.41,0,2-1.09,2.72-1.09A.72.72,0,0,1,84,23.35Z"/><path class="cls-1" d="M102.65,22.89c0,.78-1.06,1.91-2.12,2.61a10.75,10.75,0,0,1-5.83,1.7,8.68,8.68,0,0,1-9-9.11C85.66,12.79,89.58,8,95.09,8c4,0,7.91,2.79,7.91,7.21,0,2-.91,2.37-3,2.37H91.52c-.21,0-.38.07-.38.32a3.39,3.39,0,0,0,0,.42A6.29,6.29,0,0,0,92.09,21a5.77,5.77,0,0,0,5.16,2.65c2.79,0,3.78-1.45,4.62-1.45A.78.78,0,0,1,102.65,22.89ZM91.1,14.62a.31.31,0,0,0,.35.32h4.1c1.27,0,2.23-.21,2.23-1.55a2.81,2.81,0,0,0-2.87-2.76c-2,0-3.39,1.45-3.77,3.68A1.32,1.32,0,0,0,91.1,14.62Z"/><path class="cls-1" d="M127.41,25.89c0,.6-.6.92-1.37.92h-7.63c-.78,0-1.38-.32-1.38-.92s.42-.77.88-1.06a2.82,2.82,0,0,0,1.31-1.48,11.36,11.36,0,0,0,.35-3.74V15.26c0-1.87-.88-3.28-2.86-3.28a3.25,3.25,0,0,0-2.33.95c-1.2,1.16-1.59,3.07-1.59,6.68a11.36,11.36,0,0,0,.35,3.74,2.57,2.57,0,0,0,1.31,1.48c.46.29.88.53.88,1.06s-.6.92-1.38.92H106.4c-.78,0-1.35-.32-1.35-.92s.39-.77.85-1.06a2.57,2.57,0,0,0,1.31-1.48,11.36,11.36,0,0,0,.35-3.74V15.08a6.79,6.79,0,0,0-.25-2.33,1.93,1.93,0,0,0-1.23-1.16c-.39-.18-1.13-.39-1.13-1s.39-.81,1.2-1a46.27,46.27,0,0,0,4.7-1.41,2.61,2.61,0,0,1,1-.22c.46,0,.92.25.92,1.2v1.7c0,.18.07.25.14.25s.14-.07.21-.18a6.81,6.81,0,0,1,5.72-3,5.8,5.8,0,0,1,5,2.58,8.3,8.3,0,0,1,1.06,4.7v4.35a12.38,12.38,0,0,0,.35,3.74,2.72,2.72,0,0,0,1.31,1.48C127,25.12,127.41,25.36,127.41,25.89Z"/><path class="cls-1" d="M137.83,20.13c.78,0,1.2.68,2.16,1.88a5.34,5.34,0,0,0,4.17,2.36c1.09,0,2.65-.6,2.65-2,0-3.32-9.72-1.49-9.72-8.13,0-4.1,3.82-6.29,7.84-6.29a10.84,10.84,0,0,1,4.38.85,3.28,3.28,0,0,1,1.59,3.07c0,1.52-.21,2.23-1.41,2.23-.46,0-.81-.18-1.31-.92a4.73,4.73,0,0,0-4-2.58c-1.49,0-2.44.82-2.44,1.91,0,3.07,10,1.66,10,8.41a5.57,5.57,0,0,1-2.55,4.59,9.93,9.93,0,0,1-5.75,1.66,10.2,10.2,0,0,1-5.8-1.55,5.23,5.23,0,0,1-1.2-3.75C136.49,21,136.77,20.13,137.83,20.13Z"/><path class="cls-1" d="M170.83,22.89c0,.78-1.06,1.91-2.12,2.61a10.75,10.75,0,0,1-5.83,1.7,8.67,8.67,0,0,1-9-9.11c0-5.3,3.92-10.11,9.43-10.11,4,0,7.91,2.79,7.91,7.21,0,2-.92,2.37-3,2.37H159.7c-.21,0-.39.07-.39.32a2.56,2.56,0,0,0,0,.42,6.08,6.08,0,0,0,.91,2.65,5.78,5.78,0,0,0,5.16,2.65c2.79,0,3.78-1.45,4.63-1.45A.78.78,0,0,1,170.83,22.89Zm-11.55-8.27c0,.18.1.32.35.32h4.1c1.27,0,2.22-.21,2.22-1.55a2.8,2.8,0,0,0-2.86-2.76c-2,0-3.39,1.45-3.78,3.68A1.75,1.75,0,0,0,159.28,14.62Z"/><path class="cls-1" d="M206.4,10.17a6.11,6.11,0,0,0-2.19,1.91A17.37,17.37,0,0,0,202.27,16L198.2,26.67c-.1.28-.24.39-.63.39h-3.71a.52.52,0,0,1-.57-.39l-4.13-12.15c-.07-.18-.11-.21-.18-.21s-.14.1-.17.21l-4.17,12.15a.54.54,0,0,1-.57.39h-3.92c-.39,0-.56-.11-.67-.39-.71-2.22-4-12.12-4.27-13.07A6.05,6.05,0,0,0,173.94,11a4.64,4.64,0,0,0-1.35-.78.94.94,0,0,1-.67-.88c0-.53.32-1,1.31-1h7.7c.71,0,1.27.25,1.27.89,0,1-1.66.77-1.66,2.64a5.7,5.7,0,0,0,.32,1.63l2.4,7.49c0,.1.07.21.18.21s.14-.11.17-.21l4.28-12.4a.76.76,0,0,1,.81-.5H192c.45,0,.74.15.84.5l4.24,12.5a.18.18,0,0,0,.36,0l2-5.51a10.69,10.69,0,0,0,.82-3.46c0-1.94-1.84-1.73-1.84-2.79,0-.74.67-1,1.41-1h5.83c.92,0,1.31.36,1.34.92A1,1,0,0,1,206.4,10.17Z"/><path class="cls-1" d="M50.11,49A5.39,5.39,0,0,1,46.69,50a4.88,4.88,0,0,1-5.14-5.16,6,6,0,0,1,6.07-6.26,4,4,0,0,1,2.77.82,2.25,2.25,0,0,1,.46,1.45c0,.8-.15,1.49-.88,1.49-.57,0-.76-.57-1.16-1.11a2,2,0,0,0-1.7-1.12c-1.45,0-2.39,1.47-2.39,3.36,0,2.06,1,4.41,3.36,4.41,1.36,0,2.18-.9,2.69-.9a.43.43,0,0,1,.44.44C51.21,47.82,50.81,48.38,50.11,49Z"/><path class="cls-1" d="M61.71,40.64c0,.65-.34,1.28-1,1.28s-1-.57-1.75-.57c-1.72,0-1.89,2.79-1.89,4.2a6.54,6.54,0,0,0,.21,2.2,1.55,1.55,0,0,0,.78.91c.27.14.51.29.51.61s-.34.54-.8.54H53.22c-.46,0-.82-.17-.82-.54s.24-.45.53-.61a1.7,1.7,0,0,0,.78-.91,6.86,6.86,0,0,0,.19-2.2V42.8a5.06,5.06,0,0,0-.13-1.37,1.1,1.1,0,0,0-.78-.71c-.23-.08-.65-.17-.65-.59s.21-.44.69-.54a16,16,0,0,0,2.59-.8,1.55,1.55,0,0,1,.65-.17c.31,0,.56.19.56.69v1.6c0,.06,0,.08.05.08s0,0,.08-.08c.5-1,1.6-2.29,2.94-2.29A1.82,1.82,0,0,1,61.71,40.64Z"/><path class="cls-1" d="M72.16,47.48c0,.46-.63,1.14-1.26,1.56a6.44,6.44,0,0,1-3.46,1,5.16,5.16,0,0,1-5.38-5.42,5.81,5.81,0,0,1,5.61-6,4.48,4.48,0,0,1,4.7,4.28c0,1.22-.54,1.41-1.78,1.41h-5c-.13,0-.23,0-.23.19a1.86,1.86,0,0,0,0,.25,3.58,3.58,0,0,0,.55,1.58A3.42,3.42,0,0,0,69,47.9c1.66,0,2.25-.86,2.75-.86A.46.46,0,0,1,72.16,47.48ZM65.3,42.57a.18.18,0,0,0,.21.19h2.43c.76,0,1.33-.13,1.33-.93a1.66,1.66,0,0,0-1.7-1.63,2.33,2.33,0,0,0-2.25,2.18A1,1,0,0,0,65.3,42.57Z"/><path class="cls-1" d="M84.49,48.62a1.24,1.24,0,0,1-.5.84,3.08,3.08,0,0,1-1.81.58,2,2,0,0,1-2.08-1.57c0-.09,0-.13-.06-.13s0,0-.11.11A4.29,4.29,0,0,1,76.51,50c-1.66,0-3.32-.9-3.32-2.79a3,3,0,0,1,1.52-2.56,32.09,32.09,0,0,1,3.46-1.43c.67-.31,1.58-.84,1.58-1.78a1.22,1.22,0,0,0-1.37-1.24,2.16,2.16,0,0,0-1.28.4c-1.16.77-1.24,2-2.14,2-.69,0-.93-.34-.93-1.32a2.71,2.71,0,0,1,.4-1.58c.7-.88,2.94-1.09,4-1.09,2.17,0,4.69,1,4.69,3.55,0,1.41-.11,2.67-.11,4s0,1.91,1,1.95C84.28,48.17,84.49,48.3,84.49,48.62Zm-4.74-4.25c0-.08,0-.12-.07-.12s-.06,0-.12.06a19.05,19.05,0,0,0-2.19,1.15,1.73,1.73,0,0,0-.82,1.39,1.21,1.21,0,0,0,1.31,1.24A1.83,1.83,0,0,0,79.47,47a5.58,5.58,0,0,0,.28-2.46Z"/><path class="cls-1" d="M93.69,47.75a1.4,1.4,0,0,1-.27.72A3.88,3.88,0,0,1,90.25,50a3.26,3.26,0,0,1-3-1.64,5.52,5.52,0,0,1-.48-2.64c0-1.39.17-2.79.21-4.7,0-.17-.07-.23-.23-.23H85.42a.31.31,0,0,1-.32-.34v-.9c0-.19.11-.32.36-.36a2.77,2.77,0,0,0,2-1A3.7,3.7,0,0,0,88,36.67c0-.23.14-.34.35-.34h1.37a.3.3,0,0,1,.31.32v2c0,.57.05.63.55.63a7.61,7.61,0,0,0,1-.06,11.63,11.63,0,0,1,1.2-.11c.25,0,.74,0,.74.42a4.43,4.43,0,0,1-.13.63c-.13.55-.29.78-1,.78-.31,0-.69,0-1.07-.06s-.77,0-1.09,0a.21.21,0,0,0-.23.23c0,.5,0,1.11,0,1.74a16.57,16.57,0,0,0,.32,4A1.48,1.48,0,0,0,91.65,48c.84,0,1.18-.65,1.62-.65A.43.43,0,0,1,93.69,47.75Z"/><path class="cls-1" d="M100.89,49.27c0,.35-.35.54-.82.54H95.56c-.46,0-.82-.19-.82-.54s.23-.45.53-.61a1.68,1.68,0,0,0,.77-.91,6.26,6.26,0,0,0,.21-2.2V42.82a4.07,4.07,0,0,0-.15-1.39,1.17,1.17,0,0,0-.77-.69c-.23-.1-.65-.21-.65-.59s.21-.44.69-.56c1-.23,2.16-.57,2.92-.84a1.71,1.71,0,0,1,.54-.13c.28,0,.55.15.55.71v6.22a6.64,6.64,0,0,0,.21,2.2,1.7,1.7,0,0,0,.78.91C100.64,48.82,100.89,48.93,100.89,49.27ZM97.83,37.89a3.18,3.18,0,0,1-2-2,3.13,3.13,0,0,1,2-2,3.13,3.13,0,0,1,2,2A3.13,3.13,0,0,1,97.83,37.89Z"/><path class="cls-1" d="M113.51,44.27A5.74,5.74,0,0,1,107.74,50,5.39,5.39,0,0,1,102,44.39a5.79,5.79,0,0,1,5.9-5.77A5.37,5.37,0,0,1,113.51,44.27Zm-5.94-4.1c-1.43,0-2.23,1.22-2.23,3.34,0,1.47.51,4.92,2.61,4.92,1.47,0,2.2-1.58,2.2-3.57C110.15,43.34,109.71,40.17,107.57,40.17Z"/><path class="cls-1" d="M128.13,49.27c0,.35-.36.54-.82.54h-4.54c-.46,0-.82-.19-.82-.54s.26-.47.53-.63a1.76,1.76,0,0,0,.78-.89,6.71,6.71,0,0,0,.21-2.22V43c0-1.12-.53-2-1.7-2a2,2,0,0,0-1.39.57c-.71.69-.94,1.83-.94,4a6.42,6.42,0,0,0,.21,2.22,1.55,1.55,0,0,0,.77.89c.27.16.53.31.53.63s-.36.54-.82.54h-4.5c-.46,0-.79-.19-.79-.54s.23-.47.5-.63a1.61,1.61,0,0,0,.78-.89,6.71,6.71,0,0,0,.21-2.22V42.84a4,4,0,0,0-.15-1.38,1.18,1.18,0,0,0-.73-.7c-.24-.1-.68-.23-.68-.59s.23-.48.72-.58a27.31,27.31,0,0,0,2.79-.84,1.56,1.56,0,0,1,.61-.13c.27,0,.55.15.55.71v1c0,.11,0,.15.08.15s.08,0,.13-.11a4,4,0,0,1,3.4-1.76A3.45,3.45,0,0,1,126,40.15a5,5,0,0,1,.63,2.8v2.58a7,7,0,0,0,.21,2.22,1.63,1.63,0,0,0,.77.89C127.9,48.8,128.13,49,128.13,49.27Z"/><path class="cls-1" d="M129.85,45.84c.46,0,.72.4,1.28,1.12a3.19,3.19,0,0,0,2.48,1.4c.65,0,1.57-.35,1.57-1.17,0-2-5.77-.89-5.77-4.83,0-2.44,2.27-3.74,4.66-3.74a6.56,6.56,0,0,1,2.61.5,2,2,0,0,1,.94,1.83c0,.9-.13,1.32-.84,1.32-.27,0-.48-.1-.78-.54a2.82,2.82,0,0,0-2.35-1.53c-.88,0-1.45.48-1.45,1.13,0,1.83,6,1,6,5a3.33,3.33,0,0,1-1.52,2.73,5.9,5.9,0,0,1-3.42,1,6.06,6.06,0,0,1-3.44-.92,3.09,3.09,0,0,1-.72-2.23C129.05,46.37,129.22,45.84,129.85,45.84Z"/><path class="cls-1" d="M152.4,49A5.39,5.39,0,0,1,149,50a4.88,4.88,0,0,1-5.14-5.16,6,6,0,0,1,6.07-6.26,4,4,0,0,1,2.77.82,2.25,2.25,0,0,1,.46,1.45c0,.8-.15,1.49-.88,1.49-.57,0-.76-.57-1.16-1.11a2,2,0,0,0-1.7-1.12c-1.45,0-2.39,1.47-2.39,3.36,0,2.06,1,4.41,3.36,4.41,1.36,0,2.18-.9,2.68-.9a.44.44,0,0,1,.45.44C153.5,47.82,153.1,48.38,152.4,49Z"/><path class="cls-1" d="M166.1,44.27A5.74,5.74,0,0,1,160.32,50a5.39,5.39,0,0,1-5.73-5.65,5.79,5.79,0,0,1,5.9-5.77A5.38,5.38,0,0,1,166.1,44.27Zm-5.95-4.1c-1.42,0-2.22,1.22-2.22,3.34,0,1.47.5,4.92,2.6,4.92,1.47,0,2.21-1.58,2.21-3.57C162.74,43.34,162.29,40.17,160.15,40.17Z"/><path class="cls-1" d="M169.62,50a3.34,3.34,0,0,1-2.12-2.12,3.34,3.34,0,0,1,2.12-2.12,3.29,3.29,0,0,1,2.13,2.12A3.29,3.29,0,0,1,169.62,50Z"/></g></g></svg>